<svg width="160" height="56" viewBox="0 0 160 56" fill="none" xmlns="http://www.w3.org/2000/svg">
<path d="M0 9.26453C0 4.14787 4.14787 0 9.26453 0H150.549C155.665 0 159.813 4.14787 159.813 9.26453V46.3226C159.813 51.4393 155.665 55.5872 150.549 55.5872H9.26453C4.14787 55.5872 0 51.4393 0 46.3226V9.26453Z" fill="black"/>
<g clip-path="url(#clip0)">
<path d="M21.3803 23.4593C19.018 27.5586 20.5198 33.7794 23.132 37.5513C24.436 39.4371 25.7561 41.1299 27.5643 41.1299C27.5984 41.1299 27.6326 41.1292 27.6676 41.1278C28.5171 41.0939 29.131 40.8324 29.7246 40.5796C30.391 40.2956 31.0802 40.002 32.1612 40.002C33.1897 40.002 33.846 40.2861 34.4807 40.5607C35.1062 40.8314 35.7505 41.1113 36.7026 41.0935C38.7394 41.0556 39.9899 39.229 41.0932 37.6176C42.2445 35.9351 42.822 34.3015 43.0169 33.6773L43.0248 33.6524C43.0619 33.5415 43.0095 33.4204 42.9031 33.3715C42.9002 33.3702 42.8894 33.3657 42.8863 33.3644C42.5277 33.2177 39.3815 31.822 39.3484 28.0178C39.3177 24.9271 41.7086 23.2905 42.1882 22.9938L42.2105 22.9799C42.2625 22.9465 42.2986 22.8934 42.3109 22.8328C42.3232 22.7722 42.3104 22.7092 42.2756 22.6582C40.6252 20.2431 38.0958 19.8791 37.0774 19.8353C36.9296 19.8206 36.7771 19.8132 36.6239 19.8132C35.4278 19.8132 34.282 20.2649 33.3614 20.6279C32.726 20.8785 32.1772 21.0948 31.7986 21.0948C31.3732 21.0948 30.8213 20.8758 30.1821 20.6222C29.3273 20.283 28.3585 19.8986 27.3329 19.8986C27.3084 19.8986 27.2843 19.8988 27.2606 19.8993C24.8759 19.9344 22.6226 21.2987 21.3803 23.4593Z" fill="white"/>
<path d="M37.0795 13.1879C35.6354 13.2467 33.9031 14.1356 32.8677 15.3484C31.9877 16.3678 31.1281 18.0674 31.3546 19.7806C31.3688 19.8878 31.456 19.9705 31.5638 19.9789C31.6613 19.9865 31.7608 19.9903 31.8599 19.9904C33.272 19.9904 34.7952 19.2092 35.8355 17.9514C36.9304 16.6231 37.484 14.9186 37.3165 13.3917C37.3033 13.2721 37.1981 13.1832 37.0795 13.1879Z" fill="white"/>
</g>
<path d="M57.7079 13.6741H61.2516C62.1163 13.6741 62.8845 13.844 63.5562 14.1837C64.2279 14.5157 64.749 14.9905 65.1196 15.6081C65.4902 16.218 65.6754 16.9245 65.6754 17.7274C65.6754 18.5303 65.4902 19.2406 65.1196 19.8582C64.749 20.4681 64.2279 20.9429 63.5562 21.2826C62.8845 21.6146 62.1163 21.7806 61.2516 21.7806H57.7079V13.6741ZM61.1821 20.5067C61.7766 20.5067 62.2977 20.3948 62.7455 20.1709C63.201 19.9393 63.5485 19.615 63.7878 19.1981C64.0348 18.7735 64.1584 18.2833 64.1584 17.7274C64.1584 17.1715 64.0348 16.6851 63.7878 16.2682C63.5485 15.8436 63.201 15.5193 62.7455 15.2954C62.2977 15.0638 61.7766 14.948 61.1821 14.948H59.2134V20.5067H61.1821Z" fill="white"/>
<path d="M69.916 21.8617C69.2906 21.8617 68.727 21.7266 68.2252 21.4564C67.7233 21.1861 67.3296 20.8117 67.0439 20.333C66.766 19.8466 66.627 19.2985 66.627 18.6886C66.627 18.0787 66.766 17.5344 67.0439 17.0557C67.3296 16.577 67.7233 16.2026 68.2252 15.9324C68.727 15.6622 69.2906 15.5271 69.916 15.5271C70.549 15.5271 71.1165 15.6622 71.6183 15.9324C72.1201 16.2026 72.51 16.577 72.788 17.0557C73.0736 17.5344 73.2164 18.0787 73.2164 18.6886C73.2164 19.2985 73.0736 19.8466 72.788 20.333C72.51 20.8117 72.1201 21.1861 71.6183 21.4564C71.1165 21.7266 70.549 21.8617 69.916 21.8617ZM69.916 20.6225C70.4487 20.6225 70.8887 20.445 71.2361 20.0898C71.5836 19.7347 71.7573 19.2676 71.7573 18.6886C71.7573 18.1095 71.5836 17.6425 71.2361 17.2873C70.8887 16.9322 70.4487 16.7546 69.916 16.7546C69.3832 16.7546 68.9432 16.9322 68.5958 17.2873C68.2561 17.6425 68.0862 18.1095 68.0862 18.6886C68.0862 19.2676 68.2561 19.7347 68.5958 20.0898C68.9432 20.445 69.3832 20.6225 69.916 20.6225Z" fill="white"/>
<path d="M84.0777 15.5965L81.7964 21.7806H80.4067L78.8085 17.5189L77.1873 21.7806H75.7976L73.5278 15.5965H74.8943L76.5272 20.1593L78.2295 15.5965H79.4455L81.1131 20.1825L82.7923 15.5965H84.0777Z" fill="white"/>
<path d="M88.582 15.5271C89.3618 15.5271 89.9871 15.7548 90.4581 16.2103C90.929 16.6658 91.1645 17.3414 91.1645 18.2369V21.7806H89.7169V18.4222C89.7169 17.8818 89.5895 17.4765 89.3347 17.2062C89.08 16.9283 88.7171 16.7893 88.2461 16.7893C87.7134 16.7893 87.2927 16.9515 86.9839 17.2757C86.675 17.5923 86.5206 18.0516 86.5206 18.6538V21.7806H85.073V15.5965H86.4511V16.3956C86.6905 16.1099 86.9916 15.8938 87.3544 15.7471C87.7173 15.6004 88.1265 15.5271 88.582 15.5271Z" fill="white"/>
<path d="M93.0008 13.1878H94.4484V21.7806H93.0008V13.1878Z" fill="white"/>
<path d="M99.1277 21.8617C98.5024 21.8617 97.9388 21.7266 97.4369 21.4564C96.9351 21.1861 96.5414 20.8117 96.2557 20.333C95.9778 19.8466 95.8388 19.2985 95.8388 18.6886C95.8388 18.0787 95.9778 17.5344 96.2557 17.0557C96.5414 16.577 96.9351 16.2026 97.4369 15.9324C97.9388 15.6622 98.5024 15.5271 99.1277 15.5271C99.7608 15.5271 100.328 15.6622 100.83 15.9324C101.332 16.2026 101.722 16.577 102 17.0557C102.285 17.5344 102.428 18.0787 102.428 18.6886C102.428 19.2985 102.285 19.8466 102 20.333C101.722 20.8117 101.332 21.1861 100.83 21.4564C100.328 21.7266 99.7608 21.8617 99.1277 21.8617ZM99.1277 20.6225C99.6604 20.6225 100.1 20.445 100.448 20.0898C100.795 19.7347 100.969 19.2676 100.969 18.6886C100.969 18.1095 100.795 17.6425 100.448 17.2873C100.1 16.9322 99.6604 16.7546 99.1277 16.7546C98.595 16.7546 98.1549 16.9322 97.8075 17.2873C97.4678 17.6425 97.298 18.1095 97.298 18.6886C97.298 19.2676 97.4678 19.7347 97.8075 20.0898C98.1549 20.445 98.595 20.6225 99.1277 20.6225Z" fill="white"/>
<path d="M106.096 15.5271C107.007 15.5271 107.702 15.7471 108.18 16.1872C108.667 16.6195 108.91 17.2757 108.91 18.1559V21.7806H107.543V21.0279C107.366 21.2981 107.111 21.5065 106.779 21.6532C106.455 21.7922 106.061 21.8617 105.598 21.8617C105.135 21.8617 104.729 21.7845 104.382 21.6301C104.034 21.4679 103.764 21.2479 103.571 20.97C103.386 20.6843 103.293 20.3639 103.293 20.0088C103.293 19.4529 103.498 19.009 103.907 18.677C104.324 18.3373 104.976 18.1674 105.864 18.1674H107.462V18.0748C107.462 17.6425 107.331 17.3105 107.069 17.0789C106.814 16.8472 106.432 16.7314 105.922 16.7314C105.575 16.7314 105.231 16.7855 104.891 16.8936C104.559 17.0017 104.278 17.1522 104.046 17.3452L103.479 16.2914C103.803 16.0443 104.193 15.8552 104.648 15.7239C105.104 15.5927 105.586 15.5271 106.096 15.5271ZM105.899 20.8078C106.262 20.8078 106.582 20.7268 106.86 20.5646C107.146 20.3948 107.346 20.1555 107.462 19.8466V19.1286H105.968C105.135 19.1286 104.718 19.4027 104.718 19.9509C104.718 20.2134 104.822 20.4218 105.03 20.5762C105.239 20.7306 105.528 20.8078 105.899 20.8078Z" fill="white"/>
<path d="M116.881 13.1878V21.7806H115.491V20.9815C115.252 21.2749 114.955 21.495 114.599 21.6416C114.252 21.7883 113.866 21.8617 113.441 21.8617C112.847 21.8617 112.31 21.7304 111.832 21.4679C111.361 21.2054 110.99 20.8349 110.72 20.3562C110.45 19.8698 110.315 19.3139 110.315 18.6886C110.315 18.0632 110.45 17.5112 110.72 17.0325C110.99 16.5539 111.361 16.1833 111.832 15.9208C112.31 15.6583 112.847 15.5271 113.441 15.5271C113.851 15.5271 114.225 15.5965 114.565 15.7355C114.904 15.8745 115.194 16.0829 115.433 16.3609V13.1878H116.881ZM113.615 20.6225C113.963 20.6225 114.275 20.5453 114.553 20.3909C114.831 20.2288 115.051 20.001 115.213 19.7077C115.375 19.4143 115.456 19.0746 115.456 18.6886C115.456 18.3026 115.375 17.9629 115.213 17.6695C115.051 17.3761 114.831 17.1522 114.553 16.9978C114.275 16.8357 113.963 16.7546 113.615 16.7546C113.268 16.7546 112.955 16.8357 112.677 16.9978C112.399 17.1522 112.179 17.3761 112.017 17.6695C111.855 17.9629 111.774 18.3026 111.774 18.6886C111.774 19.0746 111.855 19.4143 112.017 19.7077C112.179 20.001 112.399 20.2288 112.677 20.3909C112.955 20.5453 113.268 20.6225 113.615 20.6225Z" fill="white"/>
<path d="M124.754 21.8617C124.129 21.8617 123.566 21.7266 123.064 21.4564C122.562 21.1861 122.168 20.8117 121.882 20.333C121.605 19.8466 121.466 19.2985 121.466 18.6886C121.466 18.0787 121.605 17.5344 121.882 17.0557C122.168 16.577 122.562 16.2026 123.064 15.9324C123.566 15.6622 124.129 15.5271 124.754 15.5271C125.388 15.5271 125.955 15.6622 126.457 15.9324C126.959 16.2026 127.349 16.577 127.626 17.0557C127.912 17.5344 128.055 18.0787 128.055 18.6886C128.055 19.2985 127.912 19.8466 127.626 20.333C127.349 20.8117 126.959 21.1861 126.457 21.4564C125.955 21.7266 125.388 21.8617 124.754 21.8617ZM124.754 20.6225C125.287 20.6225 125.727 20.445 126.075 20.0898C126.422 19.7347 126.596 19.2676 126.596 18.6886C126.596 18.1095 126.422 17.6425 126.075 17.2873C125.727 16.9322 125.287 16.7546 124.754 16.7546C124.222 16.7546 123.782 16.9322 123.434 17.2873C123.095 17.6425 122.925 18.1095 122.925 18.6886C122.925 19.2676 123.095 19.7347 123.434 20.0898C123.782 20.445 124.222 20.6225 124.754 20.6225Z" fill="white"/>
<path d="M132.948 15.5271C133.728 15.5271 134.353 15.7548 134.824 16.2103C135.295 16.6658 135.531 17.3414 135.531 18.2369V21.7806H134.083V18.4222C134.083 17.8818 133.956 17.4765 133.701 17.2062C133.446 16.9283 133.083 16.7893 132.612 16.7893C132.08 16.7893 131.659 16.9515 131.35 17.2757C131.041 17.5923 130.887 18.0516 130.887 18.6538V21.7806H129.439V15.5965H130.817V16.3956C131.057 16.1099 131.358 15.8938 131.721 15.7471C132.083 15.6004 132.493 15.5271 132.948 15.5271Z" fill="white"/>
<path d="M65.4402 36.6454H60.171L59.1658 39.0773H56.4745L61.5329 27.7283H64.127L69.2016 39.0773H66.4454L65.4402 36.6454ZM64.6133 34.6512L62.8137 30.3061L61.0141 34.6512H64.6133Z" fill="white"/>
<path d="M75.3564 30.2251C76.1671 30.2251 76.9021 30.4142 77.5614 30.7925C78.2315 31.16 78.7557 31.6842 79.134 32.3652C79.5123 33.0353 79.7015 33.8189 79.7015 34.7161C79.7015 35.6132 79.5123 36.4022 79.134 37.0831C78.7557 37.7533 78.2315 38.2775 77.5614 38.6558C76.9021 39.0233 76.1671 39.207 75.3564 39.207C74.2431 39.207 73.3676 38.8558 72.7299 38.1532V42.2226H70.2007V30.3548H72.6164V31.36C73.2433 30.6034 74.1567 30.2251 75.3564 30.2251ZM74.9187 37.1318C75.5672 37.1318 76.0968 36.9156 76.5076 36.4833C76.9291 36.0401 77.1399 35.451 77.1399 34.7161C77.1399 33.9811 76.9291 33.3974 76.5076 32.9651C76.0968 32.5219 75.5672 32.3003 74.9187 32.3003C74.2702 32.3003 73.7351 32.5219 73.3136 32.9651C72.9029 33.3974 72.6975 33.9811 72.6975 34.7161C72.6975 35.451 72.9029 36.0401 73.3136 36.4833C73.7351 36.9156 74.2702 37.1318 74.9187 37.1318Z" fill="white"/>
<path d="M86.5503 30.2251C87.361 30.2251 88.096 30.4142 88.7553 30.7925C89.4254 31.16 89.9496 31.6842 90.3279 32.3652C90.7062 33.0353 90.8954 33.8189 90.8954 34.7161C90.8954 35.6132 90.7062 36.4022 90.3279 37.0831C89.9496 37.7533 89.4254 38.2775 88.7553 38.6558C88.096 39.0233 87.361 39.207 86.5503 39.207C85.437 39.207 84.5615 38.8558 83.9238 38.1532V42.2226H81.3946V30.3548H83.8103V31.36C84.4372 30.6034 85.3506 30.2251 86.5503 30.2251ZM86.1126 37.1318C86.7611 37.1318 87.2907 36.9156 87.7014 36.4833C88.123 36.0401 88.3337 35.451 88.3337 34.7161C88.3337 33.9811 88.123 33.3974 87.7014 32.9651C87.2907 32.5219 86.7611 32.3003 86.1126 32.3003C85.4641 32.3003 84.929 32.5219 84.5075 32.9651C84.0968 33.3974 83.8914 33.9811 83.8914 34.7161C83.8914 35.451 84.0968 36.0401 84.5075 36.4833C84.929 36.9156 85.4641 37.1318 86.1126 37.1318Z" fill="white"/>
<path d="M101.087 39.2719C100.19 39.2719 99.3201 39.153 98.4771 38.9152C97.6448 38.6666 96.9747 38.3478 96.4667 37.9586L97.3584 35.9807C97.8448 36.3374 98.423 36.6238 99.0932 36.84C99.7633 37.0561 100.433 37.1642 101.104 37.1642C101.849 37.1642 102.401 37.0561 102.757 36.84C103.114 36.613 103.292 36.3157 103.292 35.9482C103.292 35.678 103.184 35.4565 102.968 35.2835C102.763 35.0998 102.492 34.9539 102.157 34.8458C101.833 34.7377 101.39 34.6188 100.828 34.4891C99.9633 34.2837 99.2553 34.0784 98.7041 33.873C98.1528 33.6676 97.6772 33.338 97.2773 32.884C96.8882 32.43 96.6937 31.8248 96.6937 31.0682C96.6937 30.4088 96.872 29.8144 97.2287 29.2847C97.5854 28.7443 98.1204 28.3174 98.8338 28.0039C99.5579 27.6905 100.439 27.5337 101.476 27.5337C102.201 27.5337 102.909 27.6202 103.6 27.7931C104.292 27.9661 104.897 28.2147 105.416 28.5389L104.606 30.5331C103.557 29.9387 102.509 29.6414 101.46 29.6414C100.725 29.6414 100.179 29.7603 99.8228 29.9981C99.4769 30.2359 99.3039 30.5493 99.3039 30.9385C99.3039 31.3276 99.5039 31.6194 99.9038 31.8139C100.315 31.9977 100.936 32.1814 101.768 32.3652C102.633 32.5706 103.341 32.7759 103.892 32.9813C104.443 33.1866 104.914 33.5109 105.303 33.9541C105.703 34.3972 105.903 34.9971 105.903 35.7537C105.903 36.4022 105.719 36.9967 105.351 37.5371C104.995 38.0667 104.454 38.4883 103.73 38.8017C103.006 39.1152 102.125 39.2719 101.087 39.2719Z" fill="white"/>
<path d="M113.145 38.6558C112.896 38.8395 112.588 38.9801 112.221 39.0773C111.864 39.1638 111.486 39.207 111.086 39.207C110.048 39.207 109.243 38.9422 108.67 38.4126C108.108 37.883 107.827 37.1048 107.827 36.0779V32.4949H106.481V30.5493H107.827V28.4254H110.356V30.5493H112.529V32.4949H110.356V36.0455C110.356 36.413 110.448 36.6994 110.632 36.9048C110.826 37.0994 111.097 37.1966 111.442 37.1966C111.842 37.1966 112.183 37.0886 112.464 36.8724L113.145 38.6558Z" fill="white"/>
<path d="M118.446 39.207C117.527 39.207 116.7 39.0179 115.965 38.6396C115.241 38.2505 114.674 37.7155 114.263 37.0345C113.852 36.3536 113.647 35.5808 113.647 34.7161C113.647 33.8514 113.852 33.0786 114.263 32.3976C114.674 31.7167 115.241 31.187 115.965 30.8087C116.7 30.4196 117.527 30.2251 118.446 30.2251C119.365 30.2251 120.186 30.4196 120.91 30.8087C121.634 31.187 122.202 31.7167 122.613 32.3976C123.023 33.0786 123.229 33.8514 123.229 34.7161C123.229 35.5808 123.023 36.3536 122.613 37.0345C122.202 37.7155 121.634 38.2505 120.91 38.6396C120.186 39.0179 119.365 39.207 118.446 39.207ZM118.446 37.1318C119.094 37.1318 119.624 36.9156 120.035 36.4833C120.456 36.0401 120.667 35.451 120.667 34.7161C120.667 33.9811 120.456 33.3974 120.035 32.9651C119.624 32.5219 119.094 32.3003 118.446 32.3003C117.797 32.3003 117.262 32.5219 116.841 32.9651C116.419 33.3974 116.209 33.9811 116.209 34.7161C116.209 35.451 116.419 36.0401 116.841 36.4833C117.262 36.9156 117.797 37.1318 118.446 37.1318Z" fill="white"/>
<path d="M127.335 31.5059C127.638 31.0844 128.043 30.7655 128.551 30.5493C129.07 30.3332 129.664 30.2251 130.334 30.2251V32.5597C130.053 32.5381 129.864 32.5273 129.767 32.5273C129.043 32.5273 128.475 32.7327 128.065 33.1434C127.654 33.5433 127.449 34.1486 127.449 34.9593V39.0773H124.919V30.3548H127.335V31.5059Z" fill="white"/>
<path d="M140.303 34.7485C140.303 34.7809 140.287 35.0079 140.255 35.4294H133.656C133.775 35.9699 134.056 36.3968 134.499 36.7103C134.942 37.0237 135.494 37.1804 136.153 37.1804C136.607 37.1804 137.007 37.1156 137.353 36.9859C137.709 36.8454 138.039 36.6292 138.342 36.3374L139.687 37.7965C138.866 38.7369 137.666 39.207 136.088 39.207C135.104 39.207 134.234 39.0179 133.478 38.6396C132.721 38.2505 132.137 37.7155 131.727 37.0345C131.316 36.3536 131.111 35.5808 131.111 34.7161C131.111 33.8622 131.311 33.0948 131.711 32.4138C132.121 31.7221 132.678 31.187 133.38 30.8087C134.094 30.4196 134.888 30.2251 135.764 30.2251C136.618 30.2251 137.39 30.4088 138.082 30.7763C138.774 31.1438 139.314 31.6734 139.704 32.3652C140.103 33.0461 140.303 33.8406 140.303 34.7485ZM135.78 32.1382C135.207 32.1382 134.726 32.3003 134.337 32.6246C133.948 32.9489 133.71 33.392 133.624 33.9541H137.92C137.834 33.4028 137.596 32.9651 137.207 32.6408C136.818 32.3057 136.342 32.1382 135.78 32.1382Z" fill="white"/>
<defs>
<clipPath id="clip0">
<rect width="27.9422" height="27.9422" fill="white" transform="translate(17.6481 13.1878)"/>
</clipPath>
</defs>
</svg>
